<svg width="108" height="108" xmlns="http://www.w3.org/2000/svg" xmlns:xlink="http://www.w3.org/1999/xlink" xml:space="preserve" overflow="hidden"><g transform="translate(-544 -164)"><path d="M598.006 192.125C583.715 192.125 572.131 203.71 572.131 218 572.131 232.29 583.715 243.875 598.006 243.875 612.296 243.875 623.881 232.29 623.881 218 623.865 203.716 612.289 192.141 598.006 192.125ZM594.327 228.535 583.051 217.258 586.883 213.426 594.327 220.87 609.573 205.625 613.405 209.457Z" stroke="#FFFFFF" stroke-width="1.12504" fill="#E97132"/><path d="M636.391 219.423C635.714 218.595 635.714 217.405 636.391 216.577L639.163 213.18C639.949 212.218 639.806 210.801 638.844 210.015 638.778 209.961 638.71 209.911 638.638 209.865L634.952 207.491C634.053 206.913 633.685 205.782 634.072 204.786L635.659 200.697C636.109 199.539 635.535 198.235 634.377 197.785 634.298 197.755 634.218 197.729 634.136 197.707L629.896 196.589C628.862 196.317 628.163 195.354 628.223 194.287L628.469 189.909C628.539 188.668 627.59 187.606 626.349 187.536 626.265 187.531 626.181 187.531 626.097 187.536L621.718 187.783C620.651 187.842 619.689 187.143 619.417 186.11L618.298 181.87C617.981 180.668 616.75 179.951 615.549 180.268 615.467 180.29 615.387 180.316 615.308 180.346L611.22 181.934C610.223 182.32 609.093 181.952 608.514 181.054L606.141 177.367C605.468 176.322 604.075 176.021 603.031 176.694 602.959 176.74 602.891 176.789 602.825 176.843L599.429 179.615C598.601 180.291 597.411 180.291 596.583 179.615L593.186 176.843C592.224 176.057 590.806 176.199 590.02 177.162 589.966 177.227 589.917 177.296 589.871 177.367L587.497 181.054C586.919 181.952 585.788 182.32 584.791 181.934L580.703 180.346C579.545 179.896 578.241 180.471 577.791 181.629 577.761 181.708 577.734 181.788 577.713 181.87L576.595 186.11C576.322 187.143 575.36 187.842 574.293 187.783L569.914 187.536C568.674 187.466 567.611 188.416 567.542 189.656 567.537 189.74 567.537 189.825 567.542 189.909L567.788 194.287C567.848 195.354 567.149 196.317 566.115 196.589L561.875 197.707C560.674 198.024 559.957 199.255 560.274 200.457 560.295 200.538 560.321 200.619 560.352 200.697L561.939 204.786C562.326 205.782 561.958 206.913 561.06 207.491L557.373 209.865C556.328 210.537 556.026 211.93 556.698 212.975 556.744 213.046 556.794 213.115 556.847 213.18L559.621 216.577C560.297 217.405 560.297 218.595 559.621 219.423L556.847 222.82C556.061 223.782 556.205 225.199 557.167 225.985 557.233 226.039 557.302 226.089 557.373 226.135L561.06 228.509C561.958 229.087 562.326 230.218 561.939 231.214L560.352 235.302C559.902 236.461 560.476 237.765 561.634 238.215 561.713 238.245 561.793 238.271 561.875 238.293L566.115 239.411C567.149 239.683 567.848 240.646 567.788 241.713L567.542 246.091C567.472 247.332 568.421 248.394 569.662 248.464 569.746 248.469 569.83 248.469 569.914 248.464L574.293 248.217C575.36 248.158 576.322 248.857 576.595 249.89L577.713 254.13C578.03 255.332 579.261 256.049 580.462 255.732 580.544 255.71 580.625 255.684 580.703 255.654L584.791 254.066C585.788 253.68 586.919 254.048 587.497 254.946L589.871 258.633C590.544 259.678 591.936 259.979 592.981 259.306 593.052 259.26 593.121 259.211 593.186 259.157L596.583 256.385C597.411 255.709 598.601 255.709 599.429 256.385L602.825 259.157C603.787 259.943 605.205 259.801 605.991 258.838 606.045 258.773 606.095 258.704 606.141 258.633L608.514 254.946C609.093 254.048 610.224 253.68 611.22 254.066L615.308 255.654C616.466 256.104 617.77 255.529 618.22 254.371 618.251 254.293 618.277 254.212 618.298 254.13L619.417 249.89C619.689 248.857 620.651 248.158 621.718 248.217L626.097 248.464C627.338 248.534 628.4 247.584 628.469 246.344 628.474 246.26 628.474 246.175 628.469 246.091L628.223 241.713C628.163 240.646 628.862 239.683 629.896 239.411L634.136 238.293C635.338 237.976 636.055 236.745 635.738 235.543 635.716 235.462 635.69 235.381 635.659 235.302L634.072 231.214C633.685 230.218 634.053 229.087 634.952 228.509L638.638 226.135C639.683 225.462 639.985 224.07 639.312 223.025 639.266 222.954 639.216 222.885 639.163 222.82ZM598.006 247.25C581.851 247.25 568.756 234.154 568.756 218 568.756 201.846 581.851 188.75 598.006 188.75 614.16 188.75 627.256 201.846 627.256 218 627.238 234.147 614.153 247.232 598.006 247.25Z" stroke="#FFFFFF" stroke-width="1.12504" fill="#E97132"/></g></svg>